<svg xmlns="http://www.w3.org/2000/svg" xmlns:xlink="http://www.w3.org/1999/xlink" viewBox="0 0 512 512"><defs><radialGradient id="Degradado_sin_nombre_5" cx="306.49" cy="225.11" r="251.74" gradientTransform="translate(-36.65 41.06) scale(0.95 0.95)" gradientUnits="userSpaceOnUse"><stop offset="0" stop-color="#fff"/><stop offset="1" stop-color="#007c82"/></radialGradient></defs><title>anchor-flat</title><g style="isolation:isolate"><g id="Layer_1" data-name="Layer 1"><rect y="9.14" width="512" height="493.72" rx="54.99" ry="54.99" transform="translate(512) rotate(90)" fill="#e6d6a6"/><rect x="20.24" y="11.1" width="471.53" height="489.81" rx="43.89" ry="43.89" fill="#007c82"/><path d="M266.4,177.2q.23,6.79-.9,9.72,4.29-1.13,12,2.48a32.43,32.43,0,0,0,16.73,3.39v9.95q-5.43-1.58-13.79,2.71t-14,2.26v168q48.16-9.5,65.57-53.59-7.92-3.84-22.84-5,26.45-23.51,48.61-46.8,3.16,26.46,16.05,64.67a59.18,59.18,0,0,1-11.3-4.29A36.74,36.74,0,0,0,351,327.11q-25.55,56.53-79.59,67.61-3.62,2.94-8.36,12-4.53,8.82-8.59,11.76a89.78,89.78,0,0,0-6.56-11.76,72.65,72.65,0,0,1-6.33-12Q183.64,383.87,161,327.11q-14.25,2.94-22.84,8.82,1.13-6.33,7.92-30.52,5.88-20.57,7-33.91,1.81-1.13,5.2,2.71.9,1.14,2.94,3.62a31.22,31.22,0,0,0,2.71,3.39q21.48,24,38.89,33.92-3.62,2.26-11.31,3.62-10.85,1.81-12.66,2.26,16.28,44.55,65.57,54.72V291.16q.22-54.95,0-82.3-4.07.68-12-3.17-8.14-3.84-14.7-2.94V192.8a17.62,17.62,0,0,0,13.34-2.26q6.79-4.07,13.34-2.71.22-2.26.23-10.4,0-6.78.9-9.5a46,46,0,0,1-19-14q-8.82-10.4-8.82-22.61A33.35,33.35,0,0,1,225,109.82a40.61,40.61,0,0,1,18.09-13.57,37.42,37.42,0,0,1,22.16-1.81,34.24,34.24,0,0,1,19.9,12.89q11.3,14.47,5.88,34.37-5.65,20.81-24.65,24.42Q266.17,167.48,266.4,177.2Zm8.14-37.08a20.3,20.3,0,0,0,.45-14,22,22,0,0,0-8.14-11.76q-6.56-4.52-15.37-2.94-10.18,1.81-14,9.72-3.62,7-.68,15.6a21.2,21.2,0,0,0,9.95,12.66q7.91,4.53,17.64.68A16.26,16.26,0,0,0,274.54,140.12Z" fill="#e6d6a6"/><rect x="20.24" y="11.1" width="471.53" height="489.81" rx="43.89" ry="43.89" opacity="0.38" fill="url(#Degradado_sin_nombre_5)" style="mix-blend-mode:overlay"/></g></g></svg>